HIERARCHY
ROOT Hips
{
	OFFSET 0.000000 0.000000 0.000000
	CHANNELS 6 Xposition Yposition Zposition Zrotation Xrotation Yrotation
	JOINT LHipJoint
	{
		OFFSET 0.000000 0.000000 0.000000
		CHANNELS 3 Zrotation Xrotation Yrotation
		JOINT LeftUpLeg
		{
			OFFSET 0.076937 -0.101296 0.047373
			CHANNELS 3 Zrotation Xrotation Yrotation
			JOINT LeftLeg
			{
				OFFSET 0.138181 -0.379650 0.000000
				CHANNELS 3 Zrotation Xrotation Yrotation
				JOINT LeftFoot
				{
					OFFSET 0.144621 -0.397343 0.000000
					CHANNELS 3 Zrotation Xrotation Yrotation
					JOINT LeftToeBase
					{
						OFFSET 0.008898 -0.024446 0.131094
						CHANNELS 3 Zrotation Xrotation Yrotation
						JOINT End_Site
						{
							OFFSET 0.000000 -0.000000 0.067149
							CHANNELS 3 Zrotation Xrotation Yrotation
							End Site
							{
								OFFSET 0.000000 -0.000000 0.020145
							}
						}
					}
				}
			}
		}
	}
	JOINT RHipJoint
	{
		OFFSET 0.000000 0.000000 0.000000
		CHANNELS 3 Zrotation Xrotation Yrotation
		JOINT RightUpLeg
		{
			OFFSET -0.073689 -0.101296 0.047373
			CHANNELS 3 Zrotation Xrotation Yrotation
			JOINT RightLeg
			{
				OFFSET -0.143511 -0.394292 0.000000
				CHANNELS 3 Zrotation Xrotation Yrotation
				JOINT RightFoot
				{
					OFFSET -0.144963 -0.398282 0.000000
					CHANNELS 3 Zrotation Xrotation Yrotation
					JOINT RightToeBase
					{
						OFFSET -0.009298 -0.025546 0.133386
						CHANNELS 3 Zrotation Xrotation Yrotation
						JOINT End_Site
						{
							OFFSET -0.000000 -0.000000 0.068344
							CHANNELS 3 Zrotation Xrotation Yrotation
							End Site
							{
								OFFSET -0.000000 -0.000000 0.020503
							}
						}
					}
				}
			}
		}
	}
	JOINT LowerBack
	{
		OFFSET 0.000000 0.000000 0.000000
		CHANNELS 3 Zrotation Xrotation Yrotation
		JOINT Spine
		{
			OFFSET 0.001596 0.114897 -0.010915
			CHANNELS 3 Zrotation Xrotation Yrotation
			JOINT Spine1
			{
				OFFSET 0.003202 0.115645 -0.002413
				CHANNELS 3 Zrotation Xrotation Yrotation
				JOINT Neck
				{
					OFFSET 0.000000 0.000000 0.000000
					CHANNELS 3 Zrotation Xrotation Yrotation
					JOINT Neck1
					{
						OFFSET -0.003058 0.098565 0.009709
						CHANNELS 3 Zrotation Xrotation Yrotation
						JOINT Head
						{
							OFFSET 0.005874 0.099418 -0.006997
							CHANNELS 3 Zrotation Xrotation Yrotation
							JOINT End_Site
							{
								OFFSET 0.002100 0.099931 -0.003523
								CHANNELS 3 Zrotation Xrotation Yrotation
								End Site
								{
									OFFSET 0.000630 0.029979 -0.001057
								}
							}
						}
					}
				}
				JOINT LeftShoulder
				{
					OFFSET 0.000000 0.000000 0.000000
					CHANNELS 3 Zrotation Xrotation Yrotation
					JOINT LeftArm
					{
						OFFSET 0.189788 0.067783 -0.017566
						CHANNELS 3 Zrotation Xrotation Yrotation
						JOINT LeftForeArm
						{
							OFFSET 0.281260 -0.000000 -0.000000
							CHANNELS 3 Zrotation Xrotation Yrotation
							JOINT LeftHand
							{
								OFFSET 0.196626 -0.000000 -0.000000
								CHANNELS 3 Zrotation Xrotation Yrotation
								JOINT LeftFingerBase
								{
									OFFSET 0.000000 0.000000 0.000000
									CHANNELS 3 Zrotation Xrotation Yrotation
									JOINT LeftHandIndex1
									{
										OFFSET 0.040372 -0.000000 -0.000000
										CHANNELS 3 Zrotation Xrotation Yrotation
										JOINT End_Site
										{
											OFFSET 0.032549 -0.000000 -0.000000
											CHANNELS 3 Zrotation Xrotation Yrotation
											End Site
											{
												OFFSET 0.009765 -0.000000 -0.000000
											}
										}
									}
								}
								JOINT LThumb
								{
									OFFSET 0.000000 0.000000 0.000000
									CHANNELS 3 Zrotation Xrotation Yrotation
									JOINT End_Site
									{
										OFFSET 0.033046 -0.000000 0.033046
										CHANNELS 3 Zrotation Xrotation Yrotation
										End Site
										{
											OFFSET 0.009914 -0.000000 0.009914
										}
									}
								}
							}
						}
					}
				}
				JOINT RightShoulder
				{
					OFFSET 0.000000 0.000000 0.000000
					CHANNELS 3 Zrotation Xrotation Yrotation
					JOINT RightArm
					{
						OFFSET -0.177042 0.077557 -0.022840
						CHANNELS 3 Zrotation Xrotation Yrotation
						JOINT RightForeArm
						{
							OFFSET -0.295874 -0.000000 -0.000000
							CHANNELS 3 Zrotation Xrotation Yrotation
							JOINT RightHand
							{
								OFFSET -0.194403 -0.000000 -0.000000
								CHANNELS 3 Zrotation Xrotation Yrotation
								JOINT RightFingerBase
								{
									OFFSET 0.000000 0.000000 0.000000
									CHANNELS 3 Zrotation Xrotation Yrotation
									JOINT RightHandIndex1
									{
										OFFSET -0.035138 -0.000000 -0.000000
										CHANNELS 3 Zrotation Xrotation Yrotation
										JOINT End_Site
										{
											OFFSET -0.028329 -0.000000 -0.000000
											CHANNELS 3 Zrotation Xrotation Yrotation
											End Site
											{
												OFFSET -0.008499 -0.000000 -0.000000
											}
										}
									}
								}
								JOINT RThumb
								{
									OFFSET 0.000000 0.000000 0.000000
									CHANNELS 3 Zrotation Xrotation Yrotation
									JOINT End_Site
									{
										OFFSET -0.028762 -0.000000 0.028762
										CHANNELS 3 Zrotation Xrotation Yrotation
										End Site
										{
											OFFSET -0.008628 -0.000000 0.008628
										}
									}
								}
							}
						}
					}
				}
			}
		}
	}
}
MOTION
Frames: 7
Frame Time: 0.03333333
0.000000 0.988594 0.000000 -0.000000 0.000000 -0.000000 -12.055450 22.050589 16.367549 -16.388706 -21.084059 -11.394089 -3.876232 2.025246 0.815780 6.231633 0.513191 32.822687 -0.558914 -15.243377 -4.174993 -0.000000 0.000000 -0.000000 8.315026 -4.069219 7.411662 13.853268 4.238972 -2.153759 -5.120386 1.326722 -0.416799 1.404708 23.038539 20.926286 1.241027 -15.680311 8.994573 -0.000000 0.000000 -0.000000 -1.572610 8.273555 -0.151775 2.940478 -4.750899 0.314924 -0.000000 0.000000 -0.000000 2.701521 -18.040261 -0.407611 0.359350 21.343511 -1.336205 -9.313315 10.711106 0.320770 -0.000000 0.000000 -0.000000 -5.102991 -8.371079 18.873186 -51.214962 5.021668 -10.455122 13.820637 -0.700374 -5.774029 -0.000000 0.000000 -0.000000 -1.829253 -0.434218 26.704743 -4.055105 0.067693 -1.911934 -0.000000 0.000000 -0.000000 -23.082468 13.595308 29.452170 -0.000000 0.000000 -0.000000 -11.963782 15.439387 44.208580 58.744818 -6.717391 -11.905550 3.357254 0.391693 13.305577 -0.000000 0.000000 -0.000000 -5.434755 -0.660996 13.858815 3.576867 -0.135003 -4.321618 -0.000000 0.000000 -0.000000 -2.086611 -1.666532 -12.774984 -0.000000 0.000000 -0.000000
0.000000 0.994210 0.000000 0.000000 0.000000 0.000000 -14.806378 24.583757 18.896618 -15.732606 -24.031694 -12.841615 -4.382030 2.454037 1.001152 8.468941 -1.720976 39.046252 -0.424443 -14.883182 -3.248704 0.000000 0.000000 0.000000 10.518528 -5.036279 9.482210 12.102840 5.599500 -2.738939 -5.807367 1.737877 -0.534556 1.133112 24.336556 25.234349 1.357959 -15.705856 9.822032 0.000000 0.000000 0.000000 -1.815249 8.553857 -0.156792 3.132539 -4.678901 0.322956 0.000000 0.000000 0.000000 3.667398 -17.998381 -0.348443 -0.511870 21.753128 -1.255216 -10.249824 10.350356 0.350915 0.000000 0.000000 0.000000 -3.422154 -10.590575 25.338667 -61.644375 5.237997 -8.768059 15.582184 -1.262175 -9.205289 0.000000 0.000000 0.000000 0.732318 0.204566 31.213980 -4.940686 0.066025 -1.530306 0.000000 0.000000 0.000000 -26.932157 12.624634 40.409484 0.000000 0.000000 0.000000 -16.366127 15.928714 50.464157 68.531012 -3.478543 -5.104144 2.093239 0.309413 16.814819 0.000000 0.000000 0.000000 -6.692003 -0.984386 16.717903 4.161098 -0.176890 -4.866261 0.000000 0.000000 0.000000 0.173088 0.125165 -18.256582 0.000000 0.000000 0.000000
0.006875 0.993398 0.007343 0.000000 0.000000 0.000000 -18.762059 27.839007 22.648306 -15.409311 -28.100425 -14.973229 -5.203720 2.539929 1.057510 11.596256 -3.519808 48.112891 -0.318491 -15.198957 -2.386803 0.000000 0.000000 0.000000 14.049499 -6.401501 12.818407 9.436508 7.836091 -3.611658 -6.771013 1.940175 -0.578977 0.494286 26.379649 31.622344 1.399608 -15.114319 10.520602 0.000000 0.000000 0.000000 -2.235139 8.802480 -0.163952 3.324283 -4.518196 0.325697 0.000000 0.000000 0.000000 5.234615 -17.548376 -0.259749 -2.459807 21.798140 -1.015596 -12.070443 9.560737 0.385014 0.000000 0.000000 0.000000 -0.365449 -13.383053 34.959413 -70.230247 4.579242 -6.508409 16.741875 -1.838111 -12.443431 0.000000 0.000000 0.000000 3.914602 1.253729 35.505777 -5.766919 0.055897 -1.109725 0.000000 0.000000 0.000000 -29.619939 10.929913 50.214865 0.000000 0.000000 0.000000 -23.004946 15.681919 59.428078 75.747600 1.476123 1.897885 0.578527 0.101823 19.963919 0.000000 0.000000 0.000000 -7.778370 -1.325930 19.319422 4.634582 -0.217805 -5.378410 0.000000 0.000000 0.000000 2.148613 1.421986 -23.009034 0.000000 0.000000 0.000000
0.000649 0.994436 -0.007315 0.000000 0.000000 0.000000 -21.985561 30.121860 25.708190 -15.338384 -31.145921 -16.627319 -5.790968 2.723362 1.150318 14.249319 -5.071481 54.423575 -0.205507 -14.544467 -1.610319 0.000000 0.000000 0.000000 16.622552 -7.264851 15.268778 7.593153 9.553419 -4.220753 -7.463249 2.222056 -0.648519 0.001619 27.308360 36.436947 1.326416 -14.166677 10.644165 0.000000 0.000000 0.000000 -2.503760 9.023656 -0.167073 3.484763 -4.416115 0.329464 0.000000 0.000000 0.000000 6.692344 -17.826485 -0.169036 -4.358472 22.557869 -0.796951 -13.682058 9.287700 0.436639 0.000000 0.000000 0.000000 2.033033 -15.087034 41.975917 -76.411317 2.256160 -2.866258 16.370337 -2.315198 -15.993404 0.000000 0.000000 0.000000 8.188633 2.826169 38.029486 -6.281998 0.024201 -0.441011 0.000000 0.000000 0.000000 -28.433174 8.205148 58.384888 0.000000 0.000000 0.000000 -27.864637 14.781553 65.668471 79.162902 7.080438 8.559385 -2.189019 -0.425587 22.001760 0.000000 0.000000 0.000000 -9.956433 -1.772268 20.137925 5.207732 -0.239491 -5.262462 0.000000 0.000000 0.000000 3.894355 2.453946 -25.579563 0.000000 0.000000 0.000000
0.005153 0.994154 -0.005594 0.000000 0.000000 0.000000 -24.947336 31.968716 28.531235 -15.450982 -33.770028 -18.128376 -6.296811 2.895643 1.238204 16.645357 -6.361366 59.504877 -0.114927 -13.509322 -0.970315 0.000000 0.000000 0.000000 18.907585 -7.906331 17.427068 6.017069 11.100852 -4.726100 -8.061426 2.495422 -0.714208 -0.404034 27.811621 40.545418 1.224719 -13.212574 10.545304 0.000000 0.000000 0.000000 -2.745891 9.224543 -0.168970 3.624994 -4.328688 0.332627 0.000000 0.000000 0.000000 8.089195 -18.143456 -0.073014 -6.230977 23.215160 -0.554810 -15.222772 9.053944 0.481964 0.000000 0.000000 0.000000 4.199123 -16.275731 47.907259 -80.550604 -0.793534 0.936515 15.142695 -2.577160 -19.210138 0.000000 0.000000 0.000000 12.694219 4.537442 39.208178 -6.578599 -0.015442 0.268690 0.000000 0.000000 0.000000 -24.992504 5.677832 64.775512 0.000000 0.000000 0.000000 -31.920601 13.563365 70.660952 80.014718 12.436659 14.793288 -5.237687 -1.069376 23.063915 0.000000 0.000000 0.000000 -12.257441 -2.159384 19.910038 5.727908 -0.243782 -4.870072 0.000000 0.000000 0.000000 5.220498 3.212660 -26.806270 0.000000 0.000000 0.000000
0.007592 0.994001 -0.004623 0.000000 0.000000 0.000000 -27.573033 33.424826 31.042310 -15.675392 -35.971340 -19.456201 -6.732278 3.057144 1.321054 18.704098 -7.421175 63.447058 -0.053324 -12.372265 -0.491966 0.000000 0.000000 0.000000 20.850695 -8.369618 19.255694 4.719721 12.440474 -5.134158 -8.569925 2.753323 -0.774842 -0.693254 28.004428 43.899884 1.134223 -12.438628 10.379877 0.000000 0.000000 0.000000 -2.950765 9.399330 -0.169846 3.743270 -4.251728 0.334934 0.000000 0.000000 0.000000 9.199337 -18.359812 0.007327 -7.748933 23.724410 -0.341944 -16.471835 8.820525 0.508677 0.000000 0.000000 0.000000 6.017509 -17.069755 52.701869 -82.977663 -3.919782 4.431767 13.500642 -2.614484 -21.824665 0.000000 0.000000 0.000000 16.911100 6.080486 39.321302 -6.707189 -0.053970 0.921004 0.000000 0.000000 0.000000 -20.461524 3.765002 69.357963 0.000000 0.000000 0.000000 -35.140445 12.291874 74.498470 79.151707 16.914576 20.395559 -8.101742 -1.678117 23.368123 0.000000 0.000000 0.000000 -14.320612 -2.417682 19.069978 6.138795 -0.234132 -4.364197 0.000000 0.000000 0.000000 6.107223 3.733273 -27.156365 0.000000 0.000000 0.000000
0.008828 0.994131 -0.004092 0.000000 0.000000 0.000000 -29.839608 34.558267 33.219405 -15.968152 -37.779429 -20.609469 -7.097417 3.200106 1.394975 20.425736 -8.290019 66.465528 -0.014835 -11.306470 -0.149867 0.000000 0.000000 0.000000 22.481679 -8.694398 20.779127 3.645733 13.582273 -5.460283 -8.989834 2.982906 -0.827692 -0.874975 27.998005 46.584833 1.012547 -11.534045 10.000528 0.000000 0.000000 0.000000 -3.119819 9.547544 -0.170037 3.844095 -4.186818 0.336819 0.000000 0.000000 0.000000 10.117820 -18.540650 0.077299 -9.038554 24.134761 -0.150178 -17.517822 8.612602 0.525486 0.000000 0.000000 0.000000 7.497356 -17.594913 56.515332 -84.204497 -6.738482 7.455109 11.791406 -2.495009 -23.816289 0.000000 0.000000 0.000000 20.582710 7.314858 38.787867 -6.729487 -0.086757 1.475540 0.000000 0.000000 0.000000 -15.805555 2.455481 72.446494 0.000000 0.000000 0.000000 -37.661725 11.101707 77.406715 77.387498 20.371258 25.285967 -10.555599 -2.175125 23.225797 0.000000 0.000000 0.000000 -15.989781 -2.541205 17.948068 6.429573 -0.216767 -3.857845 0.000000 0.000000 0.000000 6.644205 4.066354 -27.101271 0.000000 0.000000 0.000000
